g -1089842688_Combined Mesh
v 2.001124 1.928 3.473999
v -2.007124 1.928 3.473999
v 2.001124 1.554 3.473999
v -2.007124 1.554 3.473999
v -1.978323 1.63602 3.533279
v -2.901677 1.63602 3.054723
v -1.978323 -0.7399998 3.533279
v -2.901677 -0.7399998 3.054723
v 2.757009 -0.4820001 3.049999
v -3.027009 -0.4820001 3.049999
v 2.757009 -0.7460001 3.049999
v -3.027009 -0.7460001 3.049999
v 0.647 1.563554 3.470001
v -0.679 1.563554 3.470001
v 0.647 -0.756 3.470001
v -0.679 -0.756 3.470001
v -0.663 1.563554 3.470001
v -1.989 1.563554 3.470001
v -0.663 -0.756 3.470001
v -1.989 -0.756 3.470001
v -2.904726 1.99 3.041002
v -4.977274 1.99 3.041002
v -2.904726 1.616 3.041002
v -4.977274 1.616 3.041002
v -1.945989 1.925353 3.493955
v -2.904485 1.998828 3.061492
v -1.969752 1.552262 3.483233
v -2.928248 1.625738 3.050771
v 0.5312179 0.2669486 3.003002
v -0.6272178 0.2669486 3.003002
v 0.5312179 -0.561 3.003002
v -0.6272178 -0.561 3.003002
v -0.7487821 0.2669486 3.003002
v -1.907218 0.2669486 3.003002
v -0.7487821 -0.561 3.003002
v -1.907218 -0.561 3.003002
v -1.8435 -0.5780001 3.031
v -1.8435 0.7310001 3.031
v -2.7145 -0.5780001 3.031
v -2.7145 0.7310001 3.031
v 0.1184999 1.538 3.250002
v -0.2585 1.538 3.250002
v 0.1184999 0.3500001 3.250002
v -0.2585 0.3500001 3.250002
v -1.1515 1.538 3.250002
v -1.5285 1.538 3.250002
v -1.1515 0.3500001 3.250002
v -1.5285 0.3500001 3.250002
v -2.831324 1.649 3.039
v -4.288675 1.649 3.039
v -2.831324 -0.76 3.039
v -4.288675 -0.76 3.039
v -2.880782 0.08494854 2.405003
v -4.039218 0.08494854 2.405003
v -2.880782 -0.743 2.405003
v -4.039218 -0.743 2.405003
vt 0 0.7841797
vt 0.9033203 0.7841797
vt 0 0.7509766
vt 0.9033203 0.7509766
vt 0.9052734 1
vt 0.9833984 1
vt 0.9052734 0.7792969
vt 0.9833984 0.7792969
vt 0 0.7490234
vt 0.4521484 0.7490234
vt 0 0.7255859
vt 0.4521484 0.7255859
vt 0.2773438 1
vt 0.3769531 1
vt 0.2773438 0.7861328
vt 0.3769531 0.7861328
vt 0.2773438 1
vt 0.3769531 1
vt 0.2773438 0.7861328
vt 0.3769531 0.7861328
vt 0 0.7841797
vt 0.9033203 0.7841797
vt 0 0.7509766
vt 0.9033203 0.7509766
vt 0 0.7841797
vt 0.9033203 0.7841797
vt 0 0.7509766
vt 0.9033203 0.7509766
vt 0.4804688 0.9199219
vt 0.5810547 0.9199219
vt 0.4804688 0.8349609
vt 0.5810547 0.8349609
vt 0.4804688 0.9199219
vt 0.5810547 0.9199219
vt 0.4804688 0.8349609
vt 0.5810547 0.8349609
vt 0.7685547 0.8837891
vt 0.7685547 1
vt 0.703125 0.8837891
vt 0.703125 1
vt 0.8046875 1
vt 0.8330078 1
vt 0.8046875 0.8945313
vt 0.8330078 0.8945313
vt 0.8046875 1
vt 0.8330078 1
vt 0.8046875 0.8945313
vt 0.8330078 0.8945313
vt 0.1699219 1
vt 0.2753906 1
vt 0.1699219 0.7861328
vt 0.2753906 0.7861328
vt 0.4804688 0.9199219
vt 0.5810547 0.9199219
vt 0.4804688 0.8349609
vt 0.5810547 0.8349609
vn 0 0 -1
vn 0 0 -1
vn 0 0 -1
vn 0 0 -1
vn 0.4601503 0 -0.887841
vn 0.4601503 0 -0.887841
vn 0.4601503 0 -0.887841
vn 0.4601503 0 -0.887841
vn 0 0 -1
vn 0 0 -1
vn 0 0 -1
vn 0 0 -1
vn 0 0 -1
vn 0 0 -1
vn 0 0 -1
vn 0 0 -1
vn 0 0 -1
vn 0 0 -1
vn 0 0 -1
vn 0 0 -1
vn 0 0 -1
vn 0 0 -1
vn 0 0 -1
vn 0 0 -1
vn 0.4112657 7.55953E-08 -0.9115155
vn 0.4112657 1.511906E-07 -0.9115155
vn 0.4112657 1.511906E-07 -0.9115155
vn 0.4112657 2.267859E-07 -0.9115155
vn 0 0 -1
vn 0 0 -1
vn 0 0 -1
vn 0 0 -1
vn 0 0 -1
vn 0 0 -1
vn 0 0 -1
vn 0 0 -1
vn 0 0 -1
vn 0 0 -1
vn 0 0 -1
vn 0 0 -1
vn 0 0 -1
vn 0 0 -1
vn 0 0 -1
vn 0 0 -1
vn 0 0 -0.9999999
vn 0 0 -0.9999999
vn 0 0 -0.9999999
vn 0 0 -0.9999999
vn 0 0 -0.9999999
vn 0 0 -0.9999999
vn 0 0 -0.9999999
vn 0 0 -0.9999999
vn 0 0 -0.9999999
vn 0 0 -0.9999999
vn 0 0 -0.9999999
vn 0 0 -0.9999999
g -1089842688_Combined Mesh_0
f 3/3/3 2/2/2 1/1/1
f 4/4/4 2/2/2 3/3/3
f 7/7/7 6/6/6 5/5/5
f 8/8/8 6/6/6 7/7/7
f 11/11/11 10/10/10 9/9/9
f 12/12/12 10/10/10 11/11/11
f 15/15/15 14/14/14 13/13/13
f 16/16/16 14/14/14 15/15/15
f 19/19/19 18/18/18 17/17/17
f 20/20/20 18/18/18 19/19/19
f 23/23/23 22/22/22 21/21/21
f 24/24/24 22/22/22 23/23/23
f 27/27/27 26/26/26 25/25/25
f 28/28/28 26/26/26 27/27/27
f 31/31/31 30/30/30 29/29/29
f 32/32/32 30/30/30 31/31/31
f 35/35/35 34/34/34 33/33/33
f 36/36/36 34/34/34 35/35/35
f 39/39/39 38/38/38 37/37/37
f 40/40/40 38/38/38 39/39/39
f 43/43/43 42/42/42 41/41/41
f 44/44/44 42/42/42 43/43/43
f 47/47/47 46/46/46 45/45/45
f 48/48/48 46/46/46 47/47/47
f 51/51/51 50/50/50 49/49/49
f 52/52/52 50/50/50 51/51/51
f 55/55/55 54/54/54 53/53/53
f 56/56/56 54/54/54 55/55/55
