g -1130032128_Combined Mesh
v -4.456 5.64 0.7321812
v -5.426 5.64 0.7321812
v -4.456 5.64 0.023
v -5.426 5.64 0.023
v -4.67 5.762 -1.319
v -5.99 5.762 -1.319
v -4.67 4.278 -1.319
v -5.99 4.278 -1.319
v -3.976 5.442 -0.988
v -4.466 5.442 -0.988
v -3.976 4.714 -0.988
v -4.466 4.714 -0.988
v -4.685 6.356 1.118
v -6.315 6.356 1.118
v -4.685 5.6 1.118
v -6.315 5.6 1.118
vt 0 0.02539063
vt 0.09472656 0.02539063
vt 0 0
vt 0.09472656 0
vt 0 0.1308594
vt 0.1289063 0.1308594
vt 0 0.02734375
vt 0.1289063 0.02734375
vt 0.4267578 0.5361328
vt 0.4746094 0.5361328
vt 0.4267578 0.4853516
vt 0.4746094 0.4853516
vt 0.2548828 0.40625
vt 0.4140625 0.40625
vt 0.2548828 0.3535156
vt 0.4140625 0.3535156
vn 0 1 0
vn 0 1 0
vn 0 1 0
vn 0 1 0
vn 0 0 -1
vn 0 0 -1
vn 0 0 -1
vn 0 0 -1
vn 0 0 -1
vn 0 0 -1
vn 0 0 -1
vn 0 0 -1
vn 0 0 -1
vn 0 0 -1
vn 0 0 -1
vn 0 0 -1
g -1130032128_Combined Mesh_0
f 3/3/3 2/2/2 1/1/1
f 4/4/4 2/2/2 3/3/3
f 7/7/7 6/6/6 5/5/5
f 8/8/8 6/6/6 7/7/7
f 11/11/11 10/10/10 9/9/9
f 12/12/12 10/10/10 11/11/11
f 15/15/15 14/14/14 13/13/13
f 16/16/16 14/14/14 15/15/15
