g -1178997376_Combined Mesh
v -7.591593 11.04315 -1.466
v -7.296406 11.37279 -1.466
v -7.591593 11.37279 -1.466
v -7.296406 11.04315 -1.466
v -6.988594 11.04315 -0.053
v -6.693407 11.37279 -0.053
v -6.988594 11.37279 -0.053
v -6.693407 11.04315 -0.053
v -7.215593 11.04315 0.321
v -6.920406 11.37279 0.321
v -7.215593 11.37279 0.321
v -6.920406 11.04315 0.321
v -8.131594 11.04315 -0.543
v -7.836407 11.37279 -0.543
v -8.131594 11.37279 -0.543
v -7.836407 11.04315 -0.543
vt 1 0
vt 0 1
vt 1 1
vt 0 0
vt 1 0
vt 0 1
vt 1 1
vt 0 0
vt 1 0
vt 0 1
vt 1 1
vt 0 0
vt 1 0
vt 0 1
vt 1 1
vt 0 0
vn 0 0 -1
vn 0 0 -1
vn 0 0 -1
vn 0 0 -1
vn 0 0 -1
vn 0 0 -1
vn 0 0 -1
vn 0 0 -1
vn 0 0 -1
vn 0 0 -1
vn 0 0 -1
vn 0 0 -1
vn 0 0 -1
vn 0 0 -1
vn 0 0 -1
vn 0 0 -1
g -1178997376_Combined Mesh_0
f 3/3/3 2/2/2 1/1/1
f 4/4/4 1/1/1 2/2/2
f 7/7/7 6/6/6 5/5/5
f 8/8/8 5/5/5 6/6/6
f 11/11/11 10/10/10 9/9/9
f 12/12/12 9/9/9 10/10/10
f 15/15/15 14/14/14 13/13/13
f 16/16/16 13/13/13 14/14/14
