g 1037421696_Combined Mesh
v -4.38 0.188 0.2781812
v -5.35 0.188 0.2781812
v -4.38 0.188 -0.431
v -5.35 0.188 -0.431
v -5.29 -0.138 -1.766
v -5.58 -0.138 -1.766
v -5.29 -0.53 -1.766
v -5.58 -0.53 -1.766
v -5.566 0.464 -1.283
v -5.846 0.464 -1.283
v -5.566 0.142 -1.283
v -5.846 0.142 -1.283
v -5.516 0.242 -0.761
v -5.606 0.242 -0.761
v -5.516 0.158 -0.761
v -5.606 0.158 -0.761
v -2.488 0.1262692 2.317
v -2.978 0.1262692 2.317
v -2.488 -0.6017308 2.317
v -2.978 -0.6017308 2.317
v -2.724 0.01000005 2.274
v -3.294 0.01000005 2.274
v -2.724 -0.746 2.274
v -3.294 -0.746 2.274
v -2.674 0.3342819 2.309
v -3.004 0.3342819 2.309
v -2.674 -0.09971809 2.309
v -3.004 -0.09971809 2.309
v -5.818 0.242 0.4630001
v -5.908 0.242 0.4630001
v -5.818 0.158 0.4630001
v -5.908 0.158 0.4630001
v -4.092 0.242 0.323
v -4.182 0.242 0.323
v -4.092 0.158 0.323
v -4.182 0.158 0.323
v -3.357 -0.3190001 -1.709
v -4.677 -0.3190001 -1.709
v -3.357 -1.803 -1.709
v -4.677 -1.803 -1.709
v -5.457 0.188 0.3161812
v -6.427 0.188 0.3161812
v -5.457 0.188 -0.393
v -6.427 0.188 -0.393
vt 0 0.02539063
vt 0.09472656 0.02539063
vt 0 0
vt 0.09472656 0
vt 0.5654297 0.8720703
vt 0.59375 0.8720703
vt 0.5654297 0.8447266
vt 0.59375 0.8447266
vt 0.09667969 0.02539063
vt 0.1240234 0.02539063
vt 0.09667969 0.002929688
vt 0.1240234 0.002929688
vt 0.3017578 0.3515625
vt 0.3105469 0.3515625
vt 0.3017578 0.3457031
vt 0.3105469 0.3457031
vt 0.4267578 0.5361328
vt 0.4746094 0.5361328
vt 0.4267578 0.4853516
vt 0.4746094 0.4853516
vt 0.4140625 0.7138672
vt 0.4697266 0.7138672
vt 0.4140625 0.6611328
vt 0.4697266 0.6611328
vt 0.5585938 0.9521484
vt 0.5908203 0.9521484
vt 0.5585938 0.921875
vt 0.5908203 0.921875
vt 0.3017578 0.3515625
vt 0.3105469 0.3515625
vt 0.3017578 0.3457031
vt 0.3105469 0.3457031
vt 0.3017578 0.3515625
vt 0.3105469 0.3515625
vt 0.3017578 0.3457031
vt 0.3105469 0.3457031
vt 0 0.1308594
vt 0.1289063 0.1308594
vt 0 0.02734375
vt 0.1289063 0.02734375
vt 0 0.02539063
vt 0.09472656 0.02539063
vt 0 0
vt 0.09472656 0
vn 0 1 6.303534E-08
vn 0 1 6.303534E-08
vn 0 1 6.303534E-08
vn 0 1 6.303534E-08
vn 0 0 -1
vn 0 0 -1
vn 0 0 -1
vn 0 0 -1
vn 0 0 -0.9999999
vn 0 0 -0.9999999
vn 0 0 -0.9999999
vn 0 0 -0.9999999
vn 0 0 -1
vn 0 0 -1
vn 0 0 -1
vn 0 0 -1
vn 0 0 -1
vn 0 0 -1
vn 0 0 -1
vn 0 0 -1
vn 0 0 -1
vn 0 0 -1
vn 0 0 -1
vn 0 0 -1
vn 0 0 -1
vn 0 0 -1
vn 0 0 -1
vn 0 0 -1
vn 0 0 -1
vn 0 0 -1
vn 0 0 -1
vn 0 0 -1
vn 0 0 -1
vn 0 0 -1
vn 0 0 -1
vn 0 0 -1
vn 0 0 -0.9999999
vn 0 0 -0.9999999
vn 0 0 -0.9999999
vn 0 0 -0.9999999
vn 0 1 6.303534E-08
vn 0 1 6.303534E-08
vn 0 1 6.303534E-08
vn 0 1 6.303534E-08
g 1037421696_Combined Mesh_0
f 3/3/3 2/2/2 1/1/1
f 4/4/4 2/2/2 3/3/3
f 7/7/7 6/6/6 5/5/5
f 8/8/8 6/6/6 7/7/7
f 11/11/11 10/10/10 9/9/9
f 12/12/12 10/10/10 11/11/11
f 15/15/15 14/14/14 13/13/13
f 16/16/16 14/14/14 15/15/15
f 19/19/19 18/18/18 17/17/17
f 20/20/20 18/18/18 19/19/19
f 23/23/23 22/22/22 21/21/21
f 24/24/24 22/22/22 23/23/23
f 27/27/27 26/26/26 25/25/25
f 28/28/28 26/26/26 27/27/27
f 31/31/31 30/30/30 29/29/29
f 32/32/32 30/30/30 31/31/31
f 35/35/35 34/34/34 33/33/33
f 36/36/36 34/34/34 35/35/35
f 39/39/39 38/38/38 37/37/37
f 40/40/40 38/38/38 39/39/39
f 43/43/43 42/42/42 41/41/41
f 44/44/44 42/42/42 43/43/43
