g 1186296448_Combined Mesh
v -7.094555 9.946494 -1.852748
v -7.509832 10.16608 -1.567298
v -7.45182 10.03562 -1.917382
v -7.083967 10.01805 -1.500963
v -8.004741 10.16991 -1.435704
v -7.948122 10.03531 -1.795238
v -8.183574 9.982252 -1.624538
v -8.253817 10.12086 -1.48773
v -8.339607 10.11455 -1.108452
v -6.810773 11.0505 -1.615408
v -7.382277 11.05631 -0.3620636
v -7.030947 11.0505 -1.652425
v -7.527521 11.0505 -1.68604
v -8.100776 11.0505 -1.508274
v -8.531658 11.0505 -1.227035
v -8.763655 11.05195 -0.573249
v -8.846841 11.0505 0.177977
v -8.558448 11.0505 0.8319032
v -7.92729 11.0505 1.244941
v -7.18345 11.0505 1.238628
v -6.624322 11.0505 1.080743
v -6.269012 11.07304 0.7010205
v -6.083673 11.06916 -0.1571699
v -6.100554 11.07304 -0.9435025
v -6.37402 11.07241 -1.348807
v -6.37402 11.07241 -1.348807
v -6.786247 11.0131 -1.623716
v -6.361865 11.03497 -1.366106
v -6.810773 11.0505 -1.615408
v -6.100554 11.07304 -0.9435025
v -6.077462 11.03152 -0.9450674
v -7.006866 11.01335 -1.662813
v -7.030947 11.0505 -1.652425
v -7.525461 11.011 -1.69619
v -7.527521 11.0505 -1.68604
v -8.103456 11.00736 -1.514998
v -8.100776 11.0505 -1.508274
v -8.531658 11.0505 -1.227035
v -8.544172 11.00705 -1.232702
v -6.077462 11.03152 -0.9450674
v -6.083673 11.06916 -0.1571699
v -6.100554 11.07304 -0.9435025
v -6.05991 11.03115 -0.1525145
v -6.248903 11.03508 0.7097274
v -6.269012 11.07304 0.7010205
v -6.615227 11.01878 1.094635
v -6.624322 11.0505 1.080743
v -7.176792 11.01903 1.257803
v -6.624322 11.0505 1.080743
v -6.615227 11.01878 1.094635
v -7.18345 11.0505 1.238628
v -7.928442 11.00721 1.263577
v -7.92729 11.0505 1.244941
v -8.56001 11.00736 0.8496355
v -8.558448 11.0505 0.8319032
v -8.846841 11.0505 0.177977
v -8.56001 11.00736 0.8496355
v -8.862725 11.00705 0.1772794
v -8.558448 11.0505 0.8319032
v -8.763655 11.05195 -0.573249
v -8.782244 11.00646 -0.5733936
v -8.544172 11.00705 -1.232702
v -8.531658 11.0505 -1.227035
vt 1.51372 -1.731992
vt 1.766977 -1.412564
vt 1.787773 -1.692014
vt 1.435611 -1.477679
vt 2.105602 -1.239985
vt 2.127789 -1.525353
vt 2.293484 -1.389364
vt 2.295358 -1.243212
vt 2.308418 -0.9555643
vt -1.11497 2.457438
vt -0.8592924 3.483056
vt -0.943312 2.459994
vt -0.56374 2.505015
vt -0.1564523 2.71964
vt 0.1278641 2.992235
vt 0.2119817 3.517327
vt 0.1687554 4.095572
vt -0.1399756 4.547638
vt -0.672573 4.770761
vt -1.232905 4.663008
vt -1.632733 4.465296
vt -1.847534 4.129281
vt -1.867651 3.455697
vt -1.744132 2.864929
vt -1.481764 2.597743
vt -1.481764 2.597743
vt -1.135098 2.429388
vt -1.496973 2.569463
vt -1.11497 2.457438
vt -1.744132 2.864929
vt -1.776829 2.851945
vt -0.9586007 2.428802
vt -0.943312 2.459994
vt -0.5567083 2.4754
vt -0.56374 2.505015
vt -0.1372282 2.692991
vt -0.1564523 2.71964
vt 0.1278641 2.992235
vt 0.1579362 2.979119
vt -1.776829 2.851945
vt -1.867651 3.455697
vt -1.744132 2.864929
vt -1.901937 3.454445
vt -1.878703 4.138276
vt -1.847534 4.129281
vt -1.650557 4.485036
vt -1.632733 4.465296
vt -1.244388 4.688908
vt -1.632733 4.465296
vt -1.650557 4.485036
vt -1.232905 4.663008
vt -0.6714984 4.80524
vt -0.672573 4.770761
vt -0.1263861 4.57872
vt -0.1399756 4.547638
vt 0.1687554 4.095572
vt -0.1263861 4.57872
vt 0.2013764 4.10487
vt -0.1399756 4.547638
vt 0.2119817 3.517327
vt 0.2492148 3.518729
vt 0.1579362 2.979119
vt 0.1278641 2.992235
vn 0.3180864 0.916571 -0.2423193
vn 0.171032 0.940892 -0.2923528
vn 0.01460387 0.9376358 -0.347312
vn 0.3491186 0.9161668 -0.1968622
vn -0.1564182 0.9244348 -0.3477837
vn -0.214697 0.9031007 -0.3719062
vn -0.2959542 0.8028319 -0.5175635
vn -0.1282064 0.9506703 -0.2824694
vn -0.1878821 0.9818432 -0.02615939
vn -0.02575956 0.999534 -0.01637461
vn -0.007400706 0.9999725 0.0005454527
vn 0.0004316728 0.9999904 -0.004380438
vn -0.0005820735 0.9999905 -0.004319913
vn -0.001799139 0.9999907 -0.003935864
vn -0.002535087 0.9999912 -0.003341415
vn -0.003051736 0.9999951 -0.0006845883
vn -0.003400933 0.9999931 0.00152421
vn -0.002631515 0.9999939 0.002268835
vn -0.000970469 0.9999942 0.003283166
vn 0.0004499675 0.9999934 0.003570651
vn -0.01701914 0.9997712 0.01296321
vn -0.02075714 0.9997665 0.006001291
vn -0.009737965 0.9999521 -0.0009975189
vn -0.01064061 0.9999294 0.005319079
vn -0.02397558 0.999679 -0.008187326
vn 0.5436687 0.4813812 -0.6875293
vn 0.3968559 0.4531683 -0.7982129
vn 0.6523257 0.4715533 -0.5933874
vn 0.3230099 0.4127158 -0.8516632
vn 0.7408965 0.4499103 -0.4986512
vn 0.7478505 0.4348793 -0.5015971
vn 0.1067809 0.3201891 -0.9413165
vn 0.07925083 0.2927884 -0.9528873
vn -0.07245134 0.2616207 -0.9624476
vn -0.192969 0.2129018 -0.9578286
vn -0.4093831 0.2033642 -0.8894091
vn -0.4100207 0.165276 -0.8969765
vn -0.5308288 0.2105981 -0.8208954
vn -0.5214881 0.2563047 -0.8138538
vn 0.8617299 0.5070677 -0.01742726
vn 0.8535733 0.5139763 0.08509367
vn 0.8735307 0.4864942 -0.01635155
vn 0.8400053 0.5357389 0.08587565
vn 0.806908 0.5169768 0.2857174
vn 0.7602437 0.4936733 0.422275
vn 0.631642 0.4657272 0.6197796
vn 0.6365313 0.4551575 0.6226231
vn 0.1449163 0.509272 0.8483167
vn 0.2391922 0.4962817 0.8345607
vn 0.2496897 0.4476082 0.8586629
vn 0.06194404 0.4776134 0.8763837
vn -0.18758 0.4300035 0.8831256
vn -0.3506843 0.3751408 0.8580734
vn -0.5139385 0.3463379 0.7848039
vn -0.5145961 0.3418287 0.7863485
vn -0.9283073 0.2946882 0.2267258
vn -0.883137 0.2553285 0.3935433
vn -0.9334368 0.3541468 0.05723352
vn -0.8973792 0.1951529 0.3957601
vn -0.9143414 0.3487275 -0.2058374
vn -0.9058508 0.3708775 -0.2046562
vn -0.8882147 0.3314102 -0.3181851
vn -0.8986698 0.3004588 -0.3195574
g 1186296448_Combined Mesh_0
f 3/3/3 2/2/2 1/1/1
f 4/4/4 1/1/1 2/2/2
f 2/2/2 3/3/3 5/5/5
f 6/6/6 5/5/5 3/3/3
f 6/6/6 7/7/7 5/5/5
f 8/8/8 5/5/5 7/7/7
f 5/5/5 8/8/8 9/9/9
f 12/12/12 11/11/11 10/10/10
f 13/13/13 11/11/11 12/12/12
f 14/14/14 11/11/11 13/13/13
f 15/15/15 11/11/11 14/14/14
f 16/16/16 11/11/11 15/15/15
f 17/17/17 11/11/11 16/16/16
f 18/18/18 11/11/11 17/17/17
f 19/19/19 11/11/11 18/18/18
f 20/20/20 11/11/11 19/19/19
f 21/21/21 11/11/11 20/20/20
f 22/22/22 11/11/11 21/21/21
f 23/23/23 11/11/11 22/22/22
f 24/24/24 11/11/11 23/23/23
f 25/25/25 11/11/11 24/24/24
f 10/10/10 11/11/11 25/25/25
f 28/28/28 27/27/27 26/26/26
f 29/29/29 26/26/26 27/27/27
f 26/26/26 30/30/30 28/28/28
f 31/31/31 28/28/28 30/30/30
f 27/27/27 32/32/32 29/29/29
f 33/33/33 29/29/29 32/32/32
f 32/32/32 34/34/34 33/33/33
f 35/35/35 33/33/33 34/34/34
f 34/34/34 36/36/36 35/35/35
f 37/37/37 35/35/35 36/36/36
f 37/37/37 36/36/36 38/38/38
f 39/39/39 38/38/38 36/36/36
f 42/42/42 41/41/41 40/40/40
f 43/43/43 40/40/40 41/41/41
f 43/43/43 41/41/41 44/44/44
f 45/45/45 44/44/44 41/41/41
f 44/44/44 45/45/45 46/46/46
f 47/47/47 46/46/46 45/45/45
f 50/50/50 49/49/49 48/48/48
f 51/51/51 48/48/48 49/49/49
f 48/48/48 51/51/51 52/52/52
f 53/53/53 52/52/52 51/51/51
f 52/52/52 53/53/53 54/54/54
f 55/55/55 54/54/54 53/53/53
f 58/58/58 57/57/57 56/56/56
f 59/59/59 56/56/56 57/57/57
f 56/56/56 60/60/60 58/58/58
f 61/61/61 58/58/58 60/60/60
f 61/61/61 60/60/60 62/62/62
f 63/63/63 62/62/62 60/60/60
